<?xml version="1.0" encoding="UTF-8"?>
<svg version="1.1" xmlns="http://www.w3.org/2000/svg" width="395" height="117">
<path d="M0 0 C1.28836142 -0.0004987 2.57672284 -0.0009974 3.90412551 -0.00151122 C5.33181746 0.0081236 6.75950816 0.01794509 8.18719769 0.02793312 C9.70531309 0.03119162 11.22343062 0.03356515 12.74154872 0.03512919 C16.91469325 0.04199337 21.08769966 0.06142885 25.26079118 0.08289003 C29.76038466 0.10383741 34.26000382 0.11316477 38.75963116 0.12389565 C46.5560328 0.14408284 54.35238043 0.17164992 62.14873981 0.2042141 C73.4209951 0.2512859 84.69326424 0.28725166 95.96556779 0.32049735 C114.25364246 0.37473687 132.54167454 0.43797183 150.82969952 0.50684547 C168.59596179 0.57373491 186.36223067 0.63639919 204.12852764 0.69336891 C205.2234414 0.69688135 206.31835516 0.7003938 207.44644812 0.70401268 C212.93924888 0.72160727 218.4320499 0.73911867 223.92485106 0.7565887 C269.50101032 0.90165279 315.07711011 1.0613079 360.65318584 1.23047829 C360.99270203 2.79164648 361.32451129 4.35449167 361.65318584 5.91797829 C361.83881084 6.78809547 362.02443584 7.65821266 362.21568584 8.55469704 C362.65318584 11.23047829 362.65318584 11.23047829 362.65318584 16.23047829 C243.85318584 16.23047829 125.05318584 16.23047829 2.65318584 16.23047829 C2.65318584 31.74047829 2.65318584 47.25047829 2.65318584 63.23047829 C4.96318584 63.23047829 7.27318584 63.23047829 9.65318584 63.23047829 C9.65318584 53.33047829 9.65318584 43.43047829 9.65318584 33.23047829 C14.60318584 33.23047829 19.55318584 33.23047829 24.65318584 33.23047829 C24.65318584 47.75047829 24.65318584 62.27047829 24.65318584 77.23047829 C16.85693584 77.29235329 16.85693584 77.29235329 8.90318584 77.35547829 C7.26897686 77.37368629 5.63476788 77.3918943 3.95103741 77.41065407 C2.66165264 77.41564919 1.37226788 77.4206443 0.04381084 77.42579079 C-1.93570576 77.44150124 -1.93570576 77.44150124 -3.95521259 77.45752907 C-7.12242533 77.2455 -8.78896316 77.03809642 -11.34681416 75.23047829 C-15.62429772 68.81425294 -14.47868233 60.39821578 -14.44447041 52.95313454 C-14.44305546 51.78664879 -14.44164051 50.62016304 -14.44018269 49.41832924 C-14.43460622 45.70985232 -14.422058 42.00143681 -14.40931416 38.29297829 C-14.40429612 35.77149479 -14.39973374 33.25001034 -14.39564228 30.72852516 C-14.38464449 24.56248875 -14.36792981 18.39648791 -14.34681416 12.23047829 C-15.00681416 11.90047829 -15.66681416 11.57047829 -16.34681416 11.23047829 C-15.76955739 7.33399513 -14.02806147 5.06068379 -11.34681416 2.23047829 C-7.47769129 0.2751258 -4.30460221 -0.01468646 0 0 Z " fill="#FAFAFA" transform="translate(22.346814155578613,1.769521713256836)"/>
<path d="M0 0 C4.29 0 8.58 0 13 0 C14.98 6.93 16.96 13.86 19 21 C20.60432979 14.46395731 20.60432979 14.46395731 22.20092773 7.92602539 C22.40145752 7.11641357 22.6019873 6.30680176 22.80859375 5.47265625 C23.11494751 4.22367554 23.11494751 4.22367554 23.42749023 2.94946289 C24 1 24 1 25 0 C26.99799572 -0.09873816 28.99957158 -0.12971799 31 -0.125 C32.093125 -0.12757812 33.18625 -0.13015625 34.3125 -0.1328125 C37 0 37 0 38 1 C38.09370624 2.77991924 38.11744271 4.56356739 38.11352539 6.34594727 C38.11344986 7.4870546 38.11337433 8.62816193 38.11329651 9.80384827 C38.10813522 11.0454924 38.10297394 12.28713654 38.09765625 13.56640625 C38.0962413 14.83016586 38.09482635 16.09392548 38.09336853 17.39598083 C38.08870582 20.76124889 38.0797148 24.1264499 38.06866455 27.49169922 C38.05844846 30.9234967 38.05387049 34.35530109 38.04882812 37.78710938 C38.0377738 44.52476064 38.02049637 51.26237111 38 58 C34.04 58 30.08 58 26 58 C25.67 51.07 25.34 44.14 25 37 C23.43608794 42.21806265 23.43608794 42.21806265 21.88916016 47.44116211 C21.31654071 49.3125421 20.66011998 51.15766515 20 53 C19.01 53.495 19.01 53.495 18 54 C15.525 46.08 15.525 46.08 13 38 C12.67 44.6 12.34 51.2 12 58 C8.04 58 4.08 58 0 58 C0 38.86 0 19.72 0 0 Z " fill="#FAFBFB" transform="translate(112,20)"/>
<path d="M0 0 C24 0 24 0 29 3 C30.20621589 5.41243177 30.12921389 6.95616605 30.1328125 9.6484375 C30.13474609 11.03289063 30.13474609 11.03289063 30.13671875 12.4453125 C30.13285156 13.41210938 30.12898438 14.37890625 30.125 15.375 C30.13080078 16.81359375 30.13080078 16.81359375 30.13671875 18.28125 C30.13542969 19.20679687 30.13414062 20.13234375 30.1328125 21.0859375 C30.13168457 21.9320459 30.13055664 22.7781543 30.12939453 23.64990234 C30 26 30 26 29.43432617 28.19702148 C28.7796306 30.04776903 28.7796306 30.04776903 29.91796875 31.76171875 C31.49887519 35.03196925 31.32892044 38.25583353 31.3125 41.8125 C31.32861328 42.49892578 31.34472656 43.18535156 31.36132812 43.89257812 C31.36611077 48.94783057 30.43567275 52.54505757 28 57 C19.13997743 59.95334086 9.33928382 58 0 58 C0 38.86 0 19.72 0 0 Z M12 11 C12 15.62 12 20.24 12 25 C13.98 25 15.96 25 18 25 C18 20.38 18 15.76 18 11 C16.02 11 14.04 11 12 11 Z M12 35 C12 38.96 12 42.92 12 47 C13.98 47 15.96 47 18 47 C18 43.04 18 39.08 18 35 C16.02 35 14.04 35 12 35 Z " fill="#FBFBFB" transform="translate(356,20)"/>
<path d="M0 0 C3.63 0 7.26 0 11 0 C13.08135307 5.29798964 14.71291613 10.45563871 16 16 C16.33 10.72 16.66 5.44 17 0 C20.96 0 24.92 0 29 0 C29 19.14 29 38.28 29 58 C25.04 58 21.08 58 17 58 C15.0460978 52.31592088 13.46776586 46.87106345 12 41 C11.67 46.61 11.34 52.22 11 58 C7.37 58 3.74 58 0 58 C0 38.86 0 19.72 0 0 Z " fill="#F9FAFA" transform="translate(188,20)"/>
<path d="M0 0 C24 0 24 0 29 3 C31.24946003 7.49892007 30.22721927 13.65202437 30.24023438 18.65795898 C30.2499479 20.92533949 30.28097393 23.19181639 30.3125 25.45898438 C30.31902942 26.89843211 30.32428014 28.33788634 30.328125 29.77734375 C30.34214355 31.74562134 30.34214355 31.74562134 30.35644531 33.75366211 C29.97150089 37.25955661 29.57556068 37.8367512 27 40 C27.25690805 46.1657931 29.32297078 52.09394056 31 58 C27.04 58 23.08 58 19 58 C16.34965684 52.09696295 14 46.57457099 14 40 C13.34 40 12.68 40 12 40 C12 45.94 12 51.88 12 58 C8.04 58 4.08 58 0 58 C0 38.86 0 19.72 0 0 Z M12 11 C12 17.27 12 23.54 12 30 C13.98 30 15.96 30 18 30 C18 23.73 18 17.46 18 11 C16.02 11 14.04 11 12 11 Z " fill="#FBFBFB" transform="translate(78,20)"/>
<path d="M0 0 C0.75087891 -0.020625 1.50175781 -0.04125 2.27539062 -0.0625 C6.86898951 -0.09482084 9.82476585 0.28285844 13.5625 3.25 C14.75265481 5.63030961 14.71435503 7.14663111 14.75537109 9.80395508 C14.77946548 11.22101494 14.77946548 11.22101494 14.80404663 12.66670227 C14.84847262 16.98913893 14.88956033 21.31142167 14.91259766 25.6340332 C14.92916096 27.91441043 14.95645565 30.19473566 14.99462891 32.47485352 C15.04936781 35.7608537 15.07126757 39.04563666 15.0859375 42.33203125 C15.10860687 43.34989212 15.13127625 44.36775299 15.15463257 45.41645813 C15.14062507 50.10602631 15.10367176 52.49109715 12.32275391 56.39086914 C9.5041532 58.28929868 8.21554747 58.88990565 4.875 58.9140625 C4.01132813 58.92050781 3.14765625 58.92695312 2.2578125 58.93359375 C0.92363281 58.90458984 0.92363281 58.90458984 -0.4375 58.875 C-1.32695312 58.89433594 -2.21640625 58.91367188 -3.1328125 58.93359375 C-3.99648437 58.92714844 -4.86015625 58.92070313 -5.75 58.9140625 C-6.52988281 58.90842285 -7.30976563 58.9027832 -8.11328125 58.89697266 C-11.84011515 57.85956616 -13.18626122 56.39639519 -15.4375 53.25 C-16.15068703 49.62999441 -16.09088142 46.08159884 -16.03125 42.40234375 C-16.03129028 41.35349503 -16.03133057 40.3046463 -16.03137207 39.22401428 C-16.02601934 37.01085403 -16.00844733 34.7976941 -15.97949219 32.5847168 C-15.93760336 29.19586183 -15.93842764 25.80899232 -15.9453125 22.41992188 C-15.93482101 20.26821535 -15.92188313 18.11651906 -15.90625 15.96484375 C-15.90604858 14.95123276 -15.90584717 13.93762177 -15.90563965 12.89329529 C-15.88972778 11.94873978 -15.87381592 11.00418427 -15.85742188 10.03100586 C-15.84900269 9.20225449 -15.8405835 8.37350311 -15.83190918 7.51963806 C-15.34607851 4.7239126 -14.33608116 3.32969074 -12.4375 1.25 C-8.47634951 -0.25417132 -4.18968768 0.02862297 0 0 Z M-3.4375 11.25 C-3.4375 23.13 -3.4375 35.01 -3.4375 47.25 C-1.4575 47.25 0.5225 47.25 2.5625 47.25 C2.5625 35.37 2.5625 23.49 2.5625 11.25 C0.5825 11.25 -1.3975 11.25 -3.4375 11.25 Z " fill="#F9FAF9" transform="translate(236.4375,19.75)"/>
<path d="M0 0 C3.96 0 7.92 0 12 0 C12 15.51 12 31.02 12 47 C13.98 47 15.96 47 18 47 C18 31.49 18 15.98 18 0 C21.96 0 25.92 0 30 0 C30.12362037 7.45640006 30.21435234 14.91220332 30.2746582 22.36938477 C30.29979839 24.9059488 30.33391537 27.44244042 30.37719727 29.97875977 C30.43786661 33.62534451 30.46621574 37.27097132 30.48828125 40.91796875 C30.51408768 42.05147263 30.5398941 43.1849765 30.56648254 44.35282898 C30.56927015 52.18240011 30.56927015 52.18240011 27.76245117 56.21362305 C24.95316743 58.03028493 23.60703547 58.64023838 20.3125 58.6640625 C19.44882812 58.67050781 18.58515625 58.67695312 17.6953125 58.68359375 C16.36113281 58.65458984 16.36113281 58.65458984 15 58.625 C14.11054688 58.64433594 13.22109375 58.66367188 12.3046875 58.68359375 C11.44101562 58.67714844 10.57734375 58.67070313 9.6875 58.6640625 C8.90761719 58.65842285 8.12773437 58.6527832 7.32421875 58.64697266 C3.53826668 57.59310995 2.25604367 56.24018579 0 53 C-0.69089312 48.96748636 -0.58118562 44.99863695 -0.48828125 40.91796875 C-0.47766914 39.16399529 -0.47766914 39.16399529 -0.46684265 37.37458801 C-0.43888494 33.6449042 -0.37613872 29.91672903 -0.3125 26.1875 C-0.28741915 23.65692274 -0.26460561 21.12632192 -0.24414062 18.59570312 C-0.18905287 12.39655534 -0.10276607 6.19853333 0 0 Z " fill="#FBFBFB" transform="translate(322,20)"/>
<path d="M0 0 C3.96 0 7.92 0 12 0 C14.74136838 13.39187617 17.38136252 26.79800007 19.8125 40.25 C20.14060669 42.04195801 20.14060669 42.04195801 20.4753418 43.87011719 C20.77565308 45.55089355 20.77565308 45.55089355 21.08203125 47.265625 C21.34850464 48.74724121 21.34850464 48.74724121 21.62036133 50.25878906 C22 53 22 53 22 58 C18.04 58 14.08 58 10 58 C9.67 55.69 9.34 53.38 9 51 C6.69 51 4.38 51 2 51 C1.67 53.31 1.34 55.62 1 58 C-2.96 58 -6.92 58 -11 58 C-9.56812853 47.46858533 -7.84432566 37.0159982 -5.96826172 26.5559082 C-5.49531292 23.91129094 -5.03077728 21.26527588 -4.56640625 18.61914062 C-4.26353071 16.92178394 -3.96016346 15.2245149 -3.65625 13.52734375 C-3.45147034 12.35231544 -3.45147034 12.35231544 -3.24255371 11.15354919 C-3.04224548 10.05068321 -3.04224548 10.05068321 -2.83789062 8.92553711 C-2.72401001 8.28603622 -2.61012939 7.64653534 -2.49279785 6.98765564 C-1.89768764 4.58733235 -0.91844757 2.29611892 0 0 Z M5 26 C4.15318867 31.08086796 3.90961901 35.84828377 4 41 C5.32 41 6.64 41 8 41 C7.34 36.05 6.68 31.1 6 26 C5.67 26 5.34 26 5 26 Z " fill="#FAFBFA" transform="translate(163,20)"/>
<path d="M0 0 C0.79921875 0.00644531 1.5984375 0.01289063 2.421875 0.01953125 C3.246875 0.03628906 4.071875 0.05304687 4.921875 0.0703125 C5.76234375 0.07933594 6.6028125 0.08835937 7.46875 0.09765625 C9.53658104 0.12115433 11.60426495 0.15702342 13.671875 0.1953125 C15.02336041 4.50317225 15.671875 7.61488842 15.671875 12.1953125 C11.051875 12.1953125 6.431875 12.1953125 1.671875 12.1953125 C1.671875 16.1553125 1.671875 20.1153125 1.671875 24.1953125 C3.425 24.1540625 5.178125 24.1128125 6.984375 24.0703125 C12.296875 23.9453125 12.296875 23.9453125 15.671875 26.1953125 C17.1927687 30.75799361 16.85629981 35.29146515 16.859375 40.0703125 C16.87162109 41.06417969 16.88386719 42.05804688 16.89648438 43.08203125 C16.89938477 44.52642578 16.89938477 44.52642578 16.90234375 46 C16.90645264 46.87640137 16.91056152 47.75280273 16.91479492 48.65576172 C16.63923554 51.53653428 15.98577828 53.61891361 14.671875 56.1953125 C11.51872715 58.29741107 10.81084419 58.4387886 7.22265625 58.390625 C5.95131836 58.38095703 5.95131836 58.38095703 4.65429688 58.37109375 C3.33268555 58.34595703 3.33268555 58.34595703 1.984375 58.3203125 C1.09169922 58.31128906 0.19902344 58.30226562 -0.72070312 58.29296875 C-2.92329166 58.26941165 -5.12574225 58.23354094 -7.328125 58.1953125 C-8.318125 52.7503125 -8.318125 52.7503125 -9.328125 47.1953125 C-2.893125 46.7003125 -2.893125 46.7003125 3.671875 46.1953125 C3.671875 42.5653125 3.671875 38.9353125 3.671875 35.1953125 C1.91875 35.1128125 0.165625 35.0303125 -1.640625 34.9453125 C-6.83708523 34.7007732 -6.83708523 34.7007732 -8.97412109 32.50097656 C-10.62577464 29.68846014 -10.70149928 27.94254046 -10.69140625 24.6953125 C-10.69043945 23.1175 -10.69043945 23.1175 -10.68945312 21.5078125 C-10.67333984 20.4146875 -10.65722656 19.3215625 -10.640625 18.1953125 C-10.64384766 17.1021875 -10.64707031 16.0090625 -10.65039062 14.8828125 C-10.58690068 5.46321403 -10.58690068 5.46321403 -8.328125 2.1953125 C-5.52635229 0.32525094 -3.32912981 -0.047559 0 0 Z " fill="#F9FAFA" transform="translate(265.328125,19.8046875)"/>
<path d="M0 0 C7.26 0 14.52 0 22 0 C23.95868762 3.91737523 24.59339923 6.69003188 25 11 C24 12 24 12 21.27734375 12.09765625 C18.18489583 12.06510417 15.09244792 12.03255208 12 12 C12.33 15.96 12.66 19.92 13 24 C15.97 24.33 18.94 24.66 22 25 C22 28.3 22 31.6 22 35 C18.7 35 15.4 35 12 35 C12 38.96 12 42.92 12 47 C15.96 47 19.92 47 24 47 C23.125 56.875 23.125 56.875 22 58 C14.74 58 7.48 58 0 58 C0 38.86 0 19.72 0 0 Z " fill="#FAFAFA" transform="translate(50,20)"/>
<path d="M0 0 C3.96 0 7.92 0 12 0 C13 1 13 1 13.12025452 2.86659241 C13.1169236 4.08903908 13.1169236 4.08903908 13.11352539 5.33618164 C13.11344986 6.2570607 13.11337433 7.17793976 13.11329651 8.12672424 C13.10813522 9.12775681 13.10297394 10.12878937 13.09765625 11.16015625 C13.0962413 12.17975937 13.09482635 13.19936249 13.09336853 14.24986267 C13.08775097 17.52077107 13.0751955 20.79161213 13.0625 24.0625 C13.05748726 26.27408756 13.05292396 28.48567618 13.04882812 30.69726562 C13.03777583 36.13153654 13.02049944 41.56575684 13 47 C16.63 47 20.26 47 24 47 C23.125 55.75 23.125 55.75 22 58 C14.74 58 7.48 58 0 58 C0 38.86 0 19.72 0 0 Z " fill="#F9FAFA" transform="translate(295,20)"/>
<path d="M0 0 C2.8100346 1.79363911 4.50940468 3.01880935 6 6 C6.39447548 10.18144011 6.45035186 12.30946048 4.125 15.875 C1.19961143 18.80038857 0.42659437 18.96503325 -3.8125 19.3125 C-7.13227327 19.28232024 -7.99044521 19.0060988 -10.9375 17.125 C-13.5910687 14.39102013 -13.95036258 13.52615669 -14.3125 9.6875 C-13.95124058 5.42463889 -12.98007946 3.98007946 -10 1 C-6.79826746 -0.60086627 -3.47422941 -0.49917089 0 0 Z M-10 4 C-11.69055226 6.33457217 -12.00969831 7.61206752 -11.9375 10.5 C-10.64802215 13.93860759 -9.16374258 15.17205985 -6 17 C-2.77500781 16.93550016 -0.84813186 16.58491853 1.8125 14.75 C3.36848279 12.45697273 3.79789491 10.76210287 4 8 C3.16263745 5.3356646 2.45123158 4.30082106 0.125 2.75 C-3.75583063 1.38029507 -6.66341273 1.77560849 -10 4 Z " fill="#FDFDFD" transform="translate(158,92)"/>
<path d="M0 0 C2.8100346 1.79363911 4.50940468 3.01880935 6 6 C6.39447548 10.18144011 6.45035186 12.30946048 4.125 15.875 C1.19961143 18.80038857 0.42659437 18.96503325 -3.8125 19.3125 C-7.13227327 19.28232024 -7.99044521 19.0060988 -10.9375 17.125 C-13.5910687 14.39102013 -13.95036258 13.52615669 -14.3125 9.6875 C-13.95124058 5.42463889 -12.98007946 3.98007946 -10 1 C-6.79826746 -0.60086627 -3.47422941 -0.49917089 0 0 Z M-10 4 C-11.73823201 6.40041563 -12.02979994 7.59273413 -11.8125 10.5625 C-10.90361771 13.28914686 -10.36050368 14.37206643 -8 16 C-4.90029156 16.85736616 -2.84694533 17.25878885 0.25 16.3125 C2.41871836 14.68596123 3.18606507 13.58979295 4 11 C3.79789491 8.23789713 3.36848279 6.54302727 1.8125 4.25 C-2.03648599 1.59552691 -6.20708189 1.15531141 -10 4 Z " fill="#FCFCFC" transform="translate(97,92)"/>
<path d="M0 0 C2.8100346 1.79363911 4.50940468 3.01880935 6 6 C6.39447548 10.18144011 6.45035186 12.30946048 4.125 15.875 C1.19961143 18.80038857 0.42659437 18.96503325 -3.8125 19.3125 C-7.13227327 19.28232024 -7.99044521 19.0060988 -10.9375 17.125 C-13.5910687 14.39102013 -13.95036258 13.52615669 -14.3125 9.6875 C-13.95124058 5.42463889 -12.98007946 3.98007946 -10 1 C-6.79826746 -0.60086627 -3.47422941 -0.49917089 0 0 Z M-10 4 C-11.73823201 6.40041563 -12.02979994 7.59273413 -11.8125 10.5625 C-10.90361771 13.28914686 -10.36050368 14.37206643 -8 16 C-4.90029156 16.85736616 -2.84694533 17.25878885 0.25 16.3125 C2.41871836 14.68596123 3.18606507 13.58979295 4 11 C3.79789491 8.23789713 3.36848279 6.54302727 1.8125 4.25 C-2.03648599 1.59552691 -6.20708189 1.15531141 -10 4 Z " fill="#FCFCFC" transform="translate(344,92)"/>
<path d="M0 0 C2.8100346 1.79363911 4.50940468 3.01880935 6 6 C6.39447548 10.18144011 6.45035186 12.30946048 4.125 15.875 C1.19961143 18.80038857 0.42659437 18.96503325 -3.8125 19.3125 C-7.13227327 19.28232024 -7.99044521 19.0060988 -10.9375 17.125 C-13.5910687 14.39102013 -13.95036258 13.52615669 -14.3125 9.6875 C-13.95124058 5.42463889 -12.98007946 3.98007946 -10 1 C-6.79826746 -0.60086627 -3.47422941 -0.49917089 0 0 Z M-10 4 C-11.73823201 6.40041563 -12.02979994 7.59273413 -11.8125 10.5625 C-10.90361771 13.28914686 -10.36050368 14.37206643 -8 16 C-4.90029156 16.85736616 -2.84694533 17.25878885 0.25 16.3125 C2.41871836 14.68596123 3.18606507 13.58979295 4 11 C3.79789491 8.23789713 3.36848279 6.54302727 1.8125 4.25 C-2.03648599 1.59552691 -6.20708189 1.15531141 -10 4 Z " fill="#FCFDFC" transform="translate(249,92)"/>
<path d="M0 0 C9.02912621 -0.60194175 9.02912621 -0.60194175 13.125 1.9375 C15.65598921 6.07144905 16.02533012 9.27493702 15 14 C13.125 17.0625 13.125 17.0625 10 19 C6.55193758 19.40008052 3.49305512 19.23287034 0 19 C0 12.73 0 6.46 0 0 Z M3 2 C1.63467451 3.13701597 1.63467451 3.13701597 1.90234375 6.16015625 C1.91394531 7.44792969 1.92554688 8.73570313 1.9375 10.0625 C1.94652344 11.35285156 1.95554687 12.64320312 1.96484375 13.97265625 C1.97644531 14.97167969 1.98804688 15.97070312 2 17 C7.44124334 16.80518374 7.44124334 16.80518374 12.0625 14.375 C13.45505881 10.84718435 13.04929814 8.60696236 12 5 C8.73106489 2.26116247 7.3339145 2 3 2 Z " fill="#FBFCFC" transform="translate(312,92)"/>
<path d="M0 0 C2.64 0 5.28 0 8 0 C10 2 10 2 10.125 5.625 C10.08375 6.73875 10.0425 7.8525 10 9 C9.01 9.33 8.02 9.66 7 10 C7.66 10.928125 8.32 11.85625 9 12.8125 C11 16 11 16 11 19 C7.64379729 17.61122646 5.92701272 16.08322035 4 13 C4 12.34 4 11.68 4 11 C3.34 11 2.68 11 2 11 C2 13.64 2 16.28 2 19 C1.34 19 0.68 19 0 19 C0 12.73 0 6.46 0 0 Z M2 2 C2 3.98 2 5.96 2 8 C3.65 7.67 5.3 7.34 7 7 C7 5.68 7 4.36 7 3 C5.35 2.67 3.7 2.34 2 2 Z " fill="#FDFDFD" transform="translate(259,92)"/>
<path d="M0 0 C2.97 0 5.94 0 9 0 C10.4783226 2.95664519 10.06032783 5.74229737 10 9 C9.01 9.33 8.02 9.66 7 10 C7.66 10.928125 8.32 11.85625 9 12.8125 C11 16 11 16 11 19 C6.79373966 17.49776416 5.26099979 14.71449966 3 11 C2.67 13.64 2.34 16.28 2 19 C1.34 19 0.68 19 0 19 C0 12.73 0 6.46 0 0 Z M2 2 C2 3.98 2 5.96 2 8 C3.65 8 5.3 8 7 8 C7.6814823 6.10820797 7.6814823 6.10820797 8 4 C7.34 3.34 6.68 2.68 6 2 C4.68 2 3.36 2 2 2 Z " fill="#FDFDFD" transform="translate(168,92)"/>
<path d="M0 0 C2.70329311 3.29590691 4.41900085 6.75613519 6.1875 10.625 C6.71730469 11.77226563 7.24710937 12.91953125 7.79296875 14.1015625 C9 17 9 17 9 19 C8.01 19 7.02 19 6 19 C5.34 17.02 4.68 15.04 4 13 C1.69 13.33 -0.62 13.66 -3 14 C-3.66 15.65 -4.32 17.3 -5 19 C-5.99 19 -6.98 19 -8 19 C-6.00386732 12.2813095 -3.2708579 6.19265192 0 0 Z M0 6 C-0.66 7.65 -1.32 9.3 -2 11 C-0.35 11 1.3 11 3 11 C2.34 9.35 1.68 7.7 1 6 C0.67 6 0.34 6 0 6 Z " fill="#FDFDFD" transform="translate(301,92)"/>
<path d="M0 0 C2.70329311 3.29590691 4.41900085 6.75613519 6.1875 10.625 C6.71730469 11.77226563 7.24710938 12.91953125 7.79296875 14.1015625 C9 17 9 17 9 19 C8.01 19 7.02 19 6 19 C5.34 17.02 4.68 15.04 4 13 C1.69 13.33 -0.62 13.66 -3 14 C-3.66 15.65 -4.32 17.3 -5 19 C-5.99 19 -6.98 19 -8 19 C-6.00386732 12.2813095 -3.2708579 6.19265192 0 0 Z M0 6 C-0.66 7.65 -1.32 9.3 -2 11 C-0.35 11 1.3 11 3 11 C2.34 9.35 1.68 7.7 1 6 C0.67 6 0.34 6 0 6 Z " fill="#FDFDFD" transform="translate(195,92)"/>
<path d="M0 0 C1.051875 -0.00386719 1.051875 -0.00386719 2.125 -0.0078125 C4 0.125 4 0.125 6 1.125 C5.67 2.445 5.34 3.765 5 5.125 C4.01 4.465 3.02 3.805 2 3.125 C-1.57756686 3.12417465 -1.57756686 3.12417465 -5 4.125 C-7.17698494 6.57410806 -7.00589249 7.97768775 -6.875 11.25 C-6.27370886 14.15365844 -6.27370886 14.15365844 -4.3125 15.5625 C-0.6218626 16.46022261 2.62673319 15.81163341 6 14.125 C6 15.445 6 16.765 6 18.125 C2.79826746 19.72586627 -0.52577059 19.62417089 -4 19.125 C-6.8100346 17.33136089 -8.50940468 16.10619065 -10 13.125 C-10.39447548 8.94355989 -10.45035186 6.81553952 -8.125 3.25 C-5.30929612 0.43429612 -3.86214339 -0.01419906 0 0 Z " fill="#FCFDFC" transform="translate(74,91.875)"/>
<path d="M0 0 C3.96 0 7.92 0 12 0 C10.35848487 4.10378782 8.61539709 7.53701601 6.375 11.3125 C5.74335938 12.38113281 5.11171875 13.44976562 4.4609375 14.55078125 C3.97882813 15.35902344 3.49671875 16.16726562 3 17 C5.97 17 8.94 17 12 17 C12 17.66 12 18.32 12 19 C7.38 19 2.76 19 -2 19 C4.02678571 7.88392857 4.02678571 7.88392857 7 3 C4.69 2.67 2.38 2.34 0 2 C0 1.34 0 0.68 0 0 Z " fill="#FCFCFC" transform="translate(280,92)"/>
<path d="M0 0 C0.66 0 1.32 0 2 0 C2.33 5.28 2.66 10.56 3 16 C4.98 16 6.96 16 9 16 C11.85793316 13.14206684 11.40799941 10.85334416 11.625 6.875 C11.69976562 5.59367187 11.77453125 4.31234375 11.8515625 2.9921875 C11.90054688 2.00476563 11.94953125 1.01734375 12 0 C12.66 0 13.32 0 14 0 C14.0809313 2.60478883 14.14045434 5.20706653 14.1875 7.8125 C14.22520508 8.91948242 14.22520508 8.91948242 14.26367188 10.04882812 C14.33724283 15.46855541 14.33724283 15.46855541 12.73828125 17.98828125 C10.6685665 19.19290174 9.38792948 19.40213556 7 19.375 C6.319375 19.38273437 5.63875 19.39046875 4.9375 19.3984375 C3 19 3 19 1.26171875 17.98828125 C-0.75315907 14.81313323 -0.31117782 11.44355401 -0.1875 7.8125 C-0.17396484 7.06291016 -0.16042969 6.31332031 -0.14648438 5.54101562 C-0.11118539 3.69370233 -0.05737917 1.84675934 0 0 Z " fill="#FDFDFD" transform="translate(205,92)"/>
<path d="M0 0 C3.3 0 6.6 0 10 0 C10 0.66 10 1.32 10 2 C7.36 2 4.72 2 2 2 C2 3.65 2 5.3 2 7 C4.64 7 7.28 7 10 7 C10 7.66 10 8.32 10 9 C7.36 9 4.72 9 2 9 C2 11.64 2 14.28 2 17 C4.64 17 7.28 17 10 17 C10 17.66 10 18.32 10 19 C6.7 19 3.4 19 0 19 C0 12.73 0 6.46 0 0 Z " fill="#FDFDFD" transform="translate(119,92)"/>
<path d="M0 0 C3.96 0 7.92 0 12 0 C12 0.66 12 1.32 12 2 C10.35 2 8.7 2 7 2 C7 7.61 7 13.22 7 19 C6.34 19 5.68 19 5 19 C5 13.39 5 7.78 5 2 C3.35 2 1.7 2 0 2 C0 1.34 0 0.68 0 0 Z " fill="#FDFDFD" transform="translate(223,92)"/>
<path d="M0 0 C3.96 0 7.92 0 12 0 C12 0.66 12 1.32 12 2 C10.35 2 8.7 2 7 2 C7 7.61 7 13.22 7 19 C6.34 19 5.68 19 5 19 C5 13.39 5 7.78 5 2 C3.35 2 1.7 2 0 2 C0 1.34 0 0.68 0 0 Z " fill="#FDFDFD" transform="translate(132,92)"/>
<path d="M0 0 C0.66 0 1.32 0 2 0 C2 5.61 2 11.22 2 17 C4.31 17 6.62 17 9 17 C9 17.66 9 18.32 9 19 C6.03 19 3.06 19 0 19 C0 12.73 0 6.46 0 0 Z " fill="#FDFDFD" transform="translate(107,92)"/>
<path d="M0 0 C0.66 0 1.32 0 2 0 C2 6.27 2 12.54 2 19 C1.34 19 0.68 19 0 19 C0 12.73 0 6.46 0 0 Z " fill="#FEFEFE" transform="translate(273,92)"/>
<path d="M0 0 C1.65 0 3.3 0 5 0 C4.67 0.99 4.34 1.98 4 3 C5.65 3.33 7.3 3.66 9 4 C9 4.33 9 4.66 9 5 C6.69 5 4.38 5 2 5 C1.34 3.35 0.68 1.7 0 0 Z " fill="#F6F6F6" transform="translate(95,73)"/>
<path d="" fill="#FFFFFF" transform="translate(0,0)"/>
</svg>
